<mxfile host="app.diagrams.net" agent="Mozilla/5.0 (Windows NT 10.0; Win64; x64) AppleWebKit/537.36 (KHTML, like Gecko) Chrome/141.0.0.0 Safari/537.36" version="28.2.6">
  <diagram id="f106602c-feb2-e66a-4537-3a34d633f6aa" name="フェーズ1">
    <mxGraphModel dx="1754" dy="1663" grid="1" gridSize="10" guides="1" tooltips="1" connect="1" arrows="1" fold="1" page="1" pageScale="1" pageWidth="1169" pageHeight="827" background="none" math="0" shadow="0">
      <root>
        <mxCell id="0" />
        <mxCell id="1" parent="0" />
        <mxCell id="KU0HaTrigs29UVrVVI0A-2" value="" style="sketch=0;outlineConnect=0;fontColor=#232F3E;gradientColor=none;fillColor=#232F3D;strokeColor=none;dashed=0;verticalLabelPosition=bottom;verticalAlign=top;align=center;html=1;fontSize=12;fontStyle=0;aspect=fixed;pointerEvents=1;shape=mxgraph.aws4.users;" vertex="1" parent="1">
          <mxGeometry x="50" y="90" width="100" height="100" as="geometry" />
        </mxCell>
        <mxCell id="KU0HaTrigs29UVrVVI0A-23" style="edgeStyle=orthogonalEdgeStyle;rounded=0;orthogonalLoop=1;jettySize=auto;html=1;entryX=0;entryY=0.5;entryDx=0;entryDy=0;" edge="1" parent="1" source="KU0HaTrigs29UVrVVI0A-3" target="KU0HaTrigs29UVrVVI0A-15">
          <mxGeometry relative="1" as="geometry" />
        </mxCell>
        <mxCell id="KU0HaTrigs29UVrVVI0A-42" style="edgeStyle=orthogonalEdgeStyle;rounded=0;orthogonalLoop=1;jettySize=auto;html=1;entryX=0.5;entryY=0;entryDx=0;entryDy=0;" edge="1" parent="1" source="KU0HaTrigs29UVrVVI0A-3" target="KU0HaTrigs29UVrVVI0A-24">
          <mxGeometry relative="1" as="geometry">
            <Array as="points">
              <mxPoint x="660" y="215" />
            </Array>
          </mxGeometry>
        </mxCell>
        <mxCell id="KU0HaTrigs29UVrVVI0A-3" value="&lt;div style=&quot;padding-right: 0px; padding-bottom: 0px;&quot;&gt;&lt;span style=&quot;background-color: transparent; color: light-dark(rgb(0, 0, 0), rgb(255, 255, 255));&quot;&gt;フロント層&lt;/span&gt;&lt;/div&gt;" style="whiteSpace=wrap;html=1;align=left;verticalAlign=top;" vertex="1" parent="1">
          <mxGeometry x="210" y="80" width="230" height="270" as="geometry" />
        </mxCell>
        <mxCell id="KU0HaTrigs29UVrVVI0A-4" value="" style="sketch=0;outlineConnect=0;fontColor=#232F3E;gradientColor=none;fillColor=#232F3D;strokeColor=none;dashed=0;verticalLabelPosition=bottom;verticalAlign=top;align=center;html=1;fontSize=12;fontStyle=0;aspect=fixed;pointerEvents=1;shape=mxgraph.aws4.users;" vertex="1" parent="1">
          <mxGeometry x="50" y="240" width="100" height="100" as="geometry" />
        </mxCell>
        <mxCell id="KU0HaTrigs29UVrVVI0A-14" style="edgeStyle=orthogonalEdgeStyle;rounded=0;orthogonalLoop=1;jettySize=auto;html=1;entryX=0;entryY=0.5;entryDx=0;entryDy=0;" edge="1" parent="1" source="KU0HaTrigs29UVrVVI0A-5" target="KU0HaTrigs29UVrVVI0A-13">
          <mxGeometry relative="1" as="geometry" />
        </mxCell>
        <mxCell id="KU0HaTrigs29UVrVVI0A-5" value="Cloud Load&#xa;Balancing" style="sketch=0;html=1;verticalAlign=top;labelPosition=center;verticalLabelPosition=bottom;align=center;spacingTop=-6;fontSize=11;fontStyle=1;fontColor=#999999;shape=image;aspect=fixed;imageAspect=0;image=data:image/svg+xml,PHN2ZyB4bWxucz0iaHR0cDovL3d3dy53My5vcmcvMjAwMC9zdmciIHhtbG5zOnY9Imh0dHBzOi8vdmVjdGEuaW8vbmFubyIgd2lkdGg9IjIwIiBoZWlnaHQ9IjIwIiB2aWV3Qm94PSIwIDAgMjAgMjAiPiYjeGE7CTxzdHlsZSB0eXBlPSJ0ZXh0L2NzcyI+JiN4YTsJLnN0MHtmaWxsOiM0Mjg1ZjQ7fSYjeGE7CS5zdDF7ZmlsbDojNjY5ZGY2O30mI3hhOwkuc3Qye2ZpbGw6I2FlY2JmYTt9JiN4YTsJPC9zdHlsZT4mI3hhOwk8cGF0aCBjbGFzcz0ic3QxIiBkPSJNMTYgMTBoMnY0aC0yem0tNyAwaDJ2NEg5em0tNyAwaDJ2NEgyeiIvPiYjeGE7CTxwYXRoIGNsYXNzPSJzdDAiIGQ9Ik05IDVoMnY0SDl6Ii8+JiN4YTsJPHBhdGggY2xhc3M9InN0MSIgZD0iTTIgOWgxNnYySDJ6Ii8+JiN4YTsJPHBhdGggY2xhc3M9InN0MiIgZD0iTTQgMGgxMnY1SDR6Ii8+JiN4YTsJPHBhdGggY2xhc3M9InN0MSIgZD0iTTEwIDBoNnY1aC02eiIvPiYjeGE7CTxwYXRoIGNsYXNzPSJzdDIiIGQ9Ik0xNCAxNGg2djZoLTZ6TTAgMTRoNnY2SDB6Ii8+JiN4YTsJPHBhdGggY2xhc3M9InN0MSIgZD0iTTMgMTRoM3Y2SDN6Ii8+JiN4YTsJPHBhdGggY2xhc3M9InN0MiIgZD0iTTcgMTRoNnY2SDd6Ii8+JiN4YTsJPHBhdGggY2xhc3M9InN0MSIgZD0iTTEwIDE0aDN2NmgtM3ptNyAwaDN2NmgtM3oiLz4mI3hhOzwvc3ZnPg==;" vertex="1" parent="1">
          <mxGeometry x="220" y="180" width="70" height="70" as="geometry" />
        </mxCell>
        <mxCell id="KU0HaTrigs29UVrVVI0A-6" style="edgeStyle=orthogonalEdgeStyle;rounded=0;orthogonalLoop=1;jettySize=auto;html=1;entryX=0;entryY=0.5;entryDx=0;entryDy=0;" edge="1" parent="1" source="KU0HaTrigs29UVrVVI0A-2" target="KU0HaTrigs29UVrVVI0A-3">
          <mxGeometry relative="1" as="geometry" />
        </mxCell>
        <mxCell id="KU0HaTrigs29UVrVVI0A-7" style="edgeStyle=orthogonalEdgeStyle;rounded=0;orthogonalLoop=1;jettySize=auto;html=1;entryX=0;entryY=0.5;entryDx=0;entryDy=0;" edge="1" parent="1" source="KU0HaTrigs29UVrVVI0A-4" target="KU0HaTrigs29UVrVVI0A-3">
          <mxGeometry relative="1" as="geometry" />
        </mxCell>
        <mxCell id="KU0HaTrigs29UVrVVI0A-13" value="Cloud Run&lt;br&gt;（WebApp）" style="sketch=0;html=1;verticalAlign=top;labelPosition=center;verticalLabelPosition=bottom;align=center;spacingTop=-6;fontSize=11;fontStyle=1;fontColor=#999999;shape=image;aspect=fixed;imageAspect=0;image=data:image/svg+xml,PHN2ZyB4bWxucz0iaHR0cDovL3d3dy53My5vcmcvMjAwMC9zdmciIHhtbG5zOnY9Imh0dHBzOi8vdmVjdGEuaW8vbmFubyIgd2lkdGg9IjM2NS40NjQ5OTY3NzA0MjQ5MyIgaGVpZ2h0PSIzNzkuMjIyOTk0NDYzNTc3OTUiIHZpZXdCb3g9IjAgMCA5Ni42OTU5OTkxNDU1MDc4MSAxMDAuMzM1OTk4NTM1MTU2MjUiPiYjeGE7PHN0eWxlIHR5cGU9InRleHQvY3NzIj4mI3hhOwkuc3Qwe2ZpbGw6IzQyODVmNDt9JiN4YTsJLnN0MXtmaWxsOiNhZWNiZmE7fSYjeGE7PC9zdHlsZT4mI3hhOwk8cGF0aCBjbGFzcz0ic3QwIiBkPSJNMjkuNzk0IDEwMC4zMzZMNDYuOTIgNTAuMTY4aDQ5Ljc3NnpNMCA5OS42NzFsMTIuOTc2LTQ5LjUwMkgyOS4yMkwxNi44OTcgOTIuMDU0eiIvPiYjeGE7CTxwYXRoIGNsYXNzPSJzdDEiIGQ9Ik0yOS43OTQgMEw0Ni45MiA1MC4xNjhoNDkuNzc2ek0wIC42NjZsMTIuOTc2IDQ5LjUwMkgyOS4yMkwxNi44OTcgOC4yODN6Ii8+JiN4YTs8L3N2Zz4=;" vertex="1" parent="1">
          <mxGeometry x="360" y="175" width="64.76" height="80" as="geometry" />
        </mxCell>
        <mxCell id="KU0HaTrigs29UVrVVI0A-46" style="edgeStyle=orthogonalEdgeStyle;rounded=0;orthogonalLoop=1;jettySize=auto;html=1;entryX=0;entryY=0.5;entryDx=0;entryDy=0;" edge="1" parent="1" source="KU0HaTrigs29UVrVVI0A-15" target="KU0HaTrigs29UVrVVI0A-44">
          <mxGeometry relative="1" as="geometry" />
        </mxCell>
        <mxCell id="KU0HaTrigs29UVrVVI0A-15" value="&lt;div style=&quot;padding-right: 0px; padding-bottom: 0px;&quot;&gt;&lt;span style=&quot;background-color: transparent; color: light-dark(rgb(0, 0, 0), rgb(255, 255, 255));&quot;&gt;バックエンド層&lt;/span&gt;&lt;/div&gt;" style="whiteSpace=wrap;html=1;align=left;verticalAlign=top;" vertex="1" parent="1">
          <mxGeometry x="585" y="15" width="180" height="170" as="geometry" />
        </mxCell>
        <mxCell id="KU0HaTrigs29UVrVVI0A-20" value="Cloud Run&lt;br&gt;（SDK）" style="sketch=0;html=1;verticalAlign=top;labelPosition=center;verticalLabelPosition=bottom;align=center;spacingTop=-6;fontSize=11;fontStyle=1;fontColor=#999999;shape=image;aspect=fixed;imageAspect=0;image=data:image/svg+xml,PHN2ZyB4bWxucz0iaHR0cDovL3d3dy53My5vcmcvMjAwMC9zdmciIHhtbG5zOnY9Imh0dHBzOi8vdmVjdGEuaW8vbmFubyIgd2lkdGg9IjM2NS40NjQ5OTY3NzA0MjQ5MyIgaGVpZ2h0PSIzNzkuMjIyOTk0NDYzNTc3OTUiIHZpZXdCb3g9IjAgMCA5Ni42OTU5OTkxNDU1MDc4MSAxMDAuMzM1OTk4NTM1MTU2MjUiPiYjeGE7PHN0eWxlIHR5cGU9InRleHQvY3NzIj4mI3hhOwkuc3Qwe2ZpbGw6IzQyODVmNDt9JiN4YTsJLnN0MXtmaWxsOiNhZWNiZmE7fSYjeGE7PC9zdHlsZT4mI3hhOwk8cGF0aCBjbGFzcz0ic3QwIiBkPSJNMjkuNzk0IDEwMC4zMzZMNDYuOTIgNTAuMTY4aDQ5Ljc3NnpNMCA5OS42NzFsMTIuOTc2LTQ5LjUwMkgyOS4yMkwxNi44OTcgOTIuMDU0eiIvPiYjeGE7CTxwYXRoIGNsYXNzPSJzdDEiIGQ9Ik0yOS43OTQgMEw0Ni45MiA1MC4xNjhoNDkuNzc2ek0wIC42NjZsMTIuOTc2IDQ5LjUwMkgyOS4yMkwxNi44OTcgOC4yODN6Ii8+JiN4YTs8L3N2Zz4=;" vertex="1" parent="1">
          <mxGeometry x="640" y="60" width="64.76" height="80" as="geometry" />
        </mxCell>
        <mxCell id="KU0HaTrigs29UVrVVI0A-24" value="&lt;div style=&quot;padding-right: 0px; padding-bottom: 0px;&quot;&gt;&lt;span style=&quot;background-color: transparent; color: light-dark(rgb(0, 0, 0), rgb(255, 255, 255));&quot;&gt;データ層&lt;/span&gt;&lt;/div&gt;" style="whiteSpace=wrap;html=1;align=left;verticalAlign=top;" vertex="1" parent="1">
          <mxGeometry x="420" y="400" width="480" height="180" as="geometry" />
        </mxCell>
        <mxCell id="KU0HaTrigs29UVrVVI0A-26" value="変更点1&lt;br&gt;GKE→Cloud Run" style="whiteSpace=wrap;html=1;shape=mxgraph.basic.rectCallout;dx=46.39;dy=23;boundedLbl=1;strokeColor=#FF0000;strokeWidth=5;" vertex="1" parent="1">
          <mxGeometry x="350" y="40" width="160" height="120" as="geometry" />
        </mxCell>
        <mxCell id="KU0HaTrigs29UVrVVI0A-28" value="&lt;div style=&quot;padding-right: 0px; padding-bottom: 0px;&quot;&gt;VPC&lt;/div&gt;" style="whiteSpace=wrap;html=1;align=left;verticalAlign=top;fillColor=none;strokeColor=#00FF00;strokeWidth=5;" vertex="1" parent="1">
          <mxGeometry x="740" y="414" width="138.71" height="150" as="geometry" />
        </mxCell>
        <mxCell id="KU0HaTrigs29UVrVVI0A-27" value="Cloud SQL&lt;br&gt;(Private IP)" style="sketch=0;html=1;verticalAlign=top;labelPosition=center;verticalLabelPosition=bottom;align=center;spacingTop=-6;fontSize=11;fontStyle=1;fontColor=#999999;shape=image;aspect=fixed;imageAspect=0;image=data:image/svg+xml,PHN2ZyB4bWxucz0iaHR0cDovL3d3dy53My5vcmcvMjAwMC9zdmciIHhtbG5zOnY9Imh0dHBzOi8vdmVjdGEuaW8vbmFubyIgd2lkdGg9IjE0LjY1OTk5OTg0NzQxMjExIiBoZWlnaHQ9IjIwIiB2aWV3Qm94PSIwIDAgMTQuNjU5OTk5ODQ3NDEyMTEgMjAiPiYjeGE7CTxzdHlsZSB0eXBlPSJ0ZXh0L2NzcyI+JiN4YTsJLnN0MHtmaWxsOiM0Mjg1ZjQ7fSYjeGE7CS5zdDF7ZmlsbDojNjY5ZGY2O30mI3hhOwkuc3Qye2ZpbGw6I2FlY2JmYTt9JiN4YTsJPC9zdHlsZT4mI3hhOwk8c3R5bGU+JiN4YTsJCS5Ee2ZpbGwtcnVsZTpldmVub2RkfSYjeGE7CTwvc3R5bGU+JiN4YTsJPHBhdGggZD0iTTcuMzMgMTUuMzV2LTMuMDFMMCA4LjQ0djMuMDF6bTAgNC42NXYtMy4wMUwwIDEzLjA5djMuMDF6IiBjbGFzcz0ic3QyIEQiLz4mI3hhOwk8cGF0aCBkPSJNMTQuNjYgOC40NGwtNy4zMyAzLjl2My4wMWw3LjMzLTMuOXptMCA0LjY1bC03LjMzIDMuOVYyMGw3LjMzLTMuOXoiIGNsYXNzPSJzdDEgRCIvPiYjeGE7CTxwYXRoIGQ9Ik03LjMzIDB2My4wMWw3LjMzIDMuOVYzLjl6IiBjbGFzcz0ic3QwIEQiLz4mI3hhOwk8cGF0aCBkPSJNMCA2LjkxbDcuMzMtMy45VjBMMCAzLjl6IiBjbGFzcz0iRCBzdDEiLz4mI3hhOwk8cGF0aCBkPSJNNy4zMyAxMC43OVY3Ljc3TDAgMy44N3YzLjAyeiIgY2xhc3M9IkQgc3QyIi8+JiN4YTsJPHBhdGggZD0iTTE0LjY2IDMuODdsLTcuMzMgMy45djMuMDJsNy4zMy0zLjl6IiBjbGFzcz0iRCBzdDEiLz4mI3hhOzwvc3ZnPg==;" vertex="1" parent="1">
          <mxGeometry x="780.21" y="450.75" width="58.29" height="76.5" as="geometry" />
        </mxCell>
        <mxCell id="KU0HaTrigs29UVrVVI0A-31" value="Cloud Storage&lt;br&gt;(public)" style="sketch=0;html=1;verticalAlign=top;labelPosition=center;verticalLabelPosition=bottom;align=center;spacingTop=-6;fontSize=11;fontStyle=1;fontColor=#999999;shape=image;aspect=fixed;imageAspect=0;image=data:image/svg+xml,PHN2ZyB4bWxucz0iaHR0cDovL3d3dy53My5vcmcvMjAwMC9zdmciIHhtbG5zOnY9Imh0dHBzOi8vdmVjdGEuaW8vbmFubyIgd2lkdGg9IjIwIiBoZWlnaHQ9IjE2IiB2aWV3Qm94PSIwIDAgMjAgMTYiPiYjeGE7CTxzdHlsZSB0eXBlPSJ0ZXh0L2NzcyI+JiN4YTsJLnN0MHtmaWxsOiM0Mjg1ZjQ7fSYjeGE7CS5zdDF7ZmlsbDojNjY5ZGY2O30mI3hhOwkuc3Qye2ZpbGw6I2FlY2JmYTt9JiN4YTsJLnN0M3tmaWxsOiNmZmY7fSYjeGE7CTwvc3R5bGU+JiN4YTsJPHBhdGggY2xhc3M9InN0MiIgZD0iTTAgMGgyMHY3SDB6Ii8+JiN4YTsJPHBhdGggY2xhc3M9InN0MSIgZD0iTTE4IDBoMnY3aC0yeiIvPiYjeGE7CTxwYXRoIGNsYXNzPSJzdDAiIGQ9Ik0xOCA3bDItN2gtMnoiLz4mI3hhOwk8cGF0aCBjbGFzcz0ic3QxIiBkPSJNMCAwaDJ2N0gweiIvPiYjeGE7CTxnIGNsYXNzPSJzdDMiPiYjeGE7CQk8cGF0aCBkPSJNNCAzaDZ2MUg0eiIvPiYjeGE7CQk8cmVjdCB4PSIxMyIgeT0iMiIgd2lkdGg9IjMiIGhlaWdodD0iMyIgcng9IjEuNSIvPiYjeGE7CTwvZz4mI3hhOwk8cGF0aCBjbGFzcz0ic3QyIiBkPSJNMCA5aDIwdjdIMHoiLz4mI3hhOwk8cGF0aCBjbGFzcz0ic3QxIiBkPSJNMTggOWgydjdoLTJ6Ii8+JiN4YTsJPHBhdGggY2xhc3M9InN0MCIgZD0iTTE4IDE2bDItN2gtMnoiLz4mI3hhOwk8cGF0aCBjbGFzcz0ic3QxIiBkPSJNMCA5aDJ2N0gweiIvPiYjeGE7CTxnIGNsYXNzPSJzdDMiPiYjeGE7CQk8cGF0aCBkPSJNNCAxMmg2djFINHoiLz4mI3hhOwkJPHJlY3QgeD0iMTMiIHk9IjExIiB3aWR0aD0iMyIgaGVpZ2h0PSIzIiByeD0iMS41Ii8+JiN4YTsJPC9nPiYjeGE7PC9zdmc+;" vertex="1" parent="1">
          <mxGeometry x="530" y="459.37" width="73.19" height="59.25" as="geometry" />
        </mxCell>
        <mxCell id="KU0HaTrigs29UVrVVI0A-35" value="変更点2&lt;br&gt;&lt;div&gt;VPC ピアリング &amp;amp; 専用アドレス範囲の割当&lt;/div&gt;" style="whiteSpace=wrap;html=1;shape=mxgraph.basic.rectCallout;dx=46.39;dy=23;boundedLbl=1;strokeColor=#FF0000;strokeWidth=5;" vertex="1" parent="1">
          <mxGeometry x="810" y="280" width="208.5" height="120" as="geometry" />
        </mxCell>
        <mxCell id="KU0HaTrigs29UVrVVI0A-37" value="変更点3&lt;br&gt;&lt;div&gt;公開静的の最適化&lt;br&gt;&lt;span style=&quot;&quot; data-end=&quot;685&quot; data-start=&quot;659&quot;&gt;外部HTTPS LB + Cloud CDN&lt;/span&gt; のオリジンに設定&lt;/div&gt;" style="whiteSpace=wrap;html=1;shape=mxgraph.basic.rectCallout;dx=98.97;dy=19;boundedLbl=1;strokeColor=#FF0000;strokeWidth=5;" vertex="1" parent="1">
          <mxGeometry x="480" y="350" width="240" height="90.75" as="geometry" />
        </mxCell>
        <mxCell id="KU0HaTrigs29UVrVVI0A-43" value="Compute&#xa;Engine" style="sketch=0;html=1;verticalAlign=top;labelPosition=center;verticalLabelPosition=bottom;align=center;spacingTop=-6;fontSize=11;fontStyle=1;fontColor=#999999;shape=image;aspect=fixed;imageAspect=0;image=data:image/svg+xml,PHN2ZyB4bWxucz0iaHR0cDovL3d3dy53My5vcmcvMjAwMC9zdmciIHhtbG5zOnY9Imh0dHBzOi8vdmVjdGEuaW8vbmFubyIgd2lkdGg9IjIwIiBoZWlnaHQ9IjIwIiB2aWV3Qm94PSIwIDAgMjAgMjAiPiYjeGE7CTxzdHlsZSB0eXBlPSJ0ZXh0L2NzcyI+JiN4YTsJLnN0MHtmaWxsOiM0Mjg1ZjQ7fSYjeGE7CS5zdDF7ZmlsbDojNjY5ZGY2O30mI3hhOwkuc3Qye2ZpbGw6I2FlY2JmYTt9JiN4YTsJPC9zdHlsZT4mI3hhOwk8cGF0aCBjbGFzcz0ic3QyIiBkPSJNNyA3aDZ2Nkg3eiIvPiYjeGE7CTxwYXRoIGNsYXNzPSJzdDEiIGQ9Ik05IDBoMnY0SDl6TTUgMGgydjRINXptOCAwaDJ2NGgtMnoiLz4mI3hhOwk8cGF0aCBjbGFzcz0ic3QwIiBkPSJNOSAxNmgydjRIOXptLTQgMGgydjRINXptOCAwaDJ2NGgtMnptMy01VjloNHYyem0wIDR2LTJoNHYyem0wLThWNWg0djJ6Ii8+JiN4YTsJPHBhdGggY2xhc3M9InN0MSIgZD0iTTAgMTFWOWg0djJ6bTAgNHYtMmg0djJ6bTAtOFY1aDR2MnoiLz4mI3hhOwk8cGF0aCBjbGFzcz0ic3QyIiBkPSJNMyAzdjE0aDE0VjN6bTEyIDEySDVWNWgxMHoiLz4mI3hhOwk8cGF0aCBjbGFzcz0ic3QxIiBkPSJNMTAgMTBsLTMgM2g2eiIvPiYjeGE7CTxwYXRoIGNsYXNzPSJzdDAiIGQ9Ik0xMyA3bC0zIDMgMyAzeiIvPiYjeGE7PC9zdmc+;" vertex="1" parent="1">
          <mxGeometry x="863.25" y="49" width="102" height="102" as="geometry" />
        </mxCell>
        <mxCell id="KU0HaTrigs29UVrVVI0A-71" style="edgeStyle=orthogonalEdgeStyle;rounded=0;orthogonalLoop=1;jettySize=auto;html=1;entryX=0;entryY=0.5;entryDx=0;entryDy=0;" edge="1" parent="1" source="KU0HaTrigs29UVrVVI0A-44" target="KU0HaTrigs29UVrVVI0A-50">
          <mxGeometry relative="1" as="geometry" />
        </mxCell>
        <mxCell id="KU0HaTrigs29UVrVVI0A-72" style="edgeStyle=orthogonalEdgeStyle;rounded=0;orthogonalLoop=1;jettySize=auto;html=1;entryX=0;entryY=0.5;entryDx=0;entryDy=0;" edge="1" parent="1" source="KU0HaTrigs29UVrVVI0A-44" target="KU0HaTrigs29UVrVVI0A-48">
          <mxGeometry relative="1" as="geometry" />
        </mxCell>
        <mxCell id="KU0HaTrigs29UVrVVI0A-73" style="edgeStyle=orthogonalEdgeStyle;rounded=0;orthogonalLoop=1;jettySize=auto;html=1;entryX=0;entryY=0.5;entryDx=0;entryDy=0;" edge="1" parent="1" source="KU0HaTrigs29UVrVVI0A-44" target="KU0HaTrigs29UVrVVI0A-47">
          <mxGeometry relative="1" as="geometry" />
        </mxCell>
        <mxCell id="KU0HaTrigs29UVrVVI0A-44" value="&lt;div style=&quot;padding-right: 0px; padding-bottom: 0px;&quot;&gt;DNS&lt;/div&gt;" style="whiteSpace=wrap;html=1;align=left;verticalAlign=top;fillColor=none;strokeColor=#7F00FF;strokeWidth=5;" vertex="1" parent="1">
          <mxGeometry x="838.5" y="15" width="150" height="170" as="geometry" />
        </mxCell>
        <mxCell id="KU0HaTrigs29UVrVVI0A-45" value="変更点4&lt;br&gt;&lt;div&gt;FQDNに切り替え&lt;/div&gt;" style="whiteSpace=wrap;html=1;shape=mxgraph.basic.rectCallout;dx=46.39;dy=23;boundedLbl=1;strokeColor=#FF0000;strokeWidth=5;" vertex="1" parent="1">
          <mxGeometry x="900" y="-120" width="208.5" height="120" as="geometry" />
        </mxCell>
        <mxCell id="KU0HaTrigs29UVrVVI0A-47" value="店舗B" style="rounded=1;whiteSpace=wrap;html=1;fontFamily=Helvetica;fontSize=11;fontColor=#717171;labelBackgroundColor=none;fillColor=#e51400;strokeColor=none;opacity=20;align=right;verticalAlign=top;spacingRight=15;fontStyle=1" vertex="1" parent="1">
          <mxGeometry x="1169" y="349" width="320" height="140" as="geometry" />
        </mxCell>
        <mxCell id="KU0HaTrigs29UVrVVI0A-48" value="&lt;font color=&quot;#717171&quot;&gt;店舗A&lt;/font&gt;" style="rounded=1;whiteSpace=wrap;html=1;fontFamily=Helvetica;fontSize=11;fontColor=#000000;labelBackgroundColor=none;fillColor=#f0a30a;strokeColor=none;opacity=20;align=right;verticalAlign=top;fontStyle=1;spacingRight=15;" vertex="1" parent="1">
          <mxGeometry x="1169" y="189" width="320" height="140" as="geometry" />
        </mxCell>
        <mxCell id="KU0HaTrigs29UVrVVI0A-49" value="" style="group" connectable="0" vertex="1" parent="1">
          <mxGeometry x="1330" y="70" width="160" height="100" as="geometry" />
        </mxCell>
        <mxCell id="KU0HaTrigs29UVrVVI0A-50" value="&lt;font color=&quot;#717171&quot;&gt;検証環境&lt;/font&gt;" style="rounded=1;whiteSpace=wrap;html=1;fontFamily=Helvetica;fontSize=11;labelBackgroundColor=none;fillColor=#ffcccc;strokeColor=#36393d;opacity=20;align=right;verticalAlign=top;fontStyle=1;spacingRight=15;" vertex="1" parent="KU0HaTrigs29UVrVVI0A-49">
          <mxGeometry x="-160" y="-40" width="320" height="140" as="geometry" />
        </mxCell>
        <mxCell id="KU0HaTrigs29UVrVVI0A-51" value="" style="rounded=1;whiteSpace=wrap;html=1;strokeColor=#717171;" vertex="1" parent="KU0HaTrigs29UVrVVI0A-49">
          <mxGeometry width="120" height="60" as="geometry" />
        </mxCell>
        <mxCell id="KU0HaTrigs29UVrVVI0A-52" value="" style="rounded=1;whiteSpace=wrap;html=1;strokeColor=#717171;fillColor=#717171;" vertex="1" parent="KU0HaTrigs29UVrVVI0A-49">
          <mxGeometry x="20" y="10" width="90" height="40" as="geometry" />
        </mxCell>
        <mxCell id="KU0HaTrigs29UVrVVI0A-53" value="" style="group" connectable="0" vertex="1" parent="KU0HaTrigs29UVrVVI0A-49">
          <mxGeometry x="-130" y="-25" width="110" height="110" as="geometry" />
        </mxCell>
        <mxCell id="KU0HaTrigs29UVrVVI0A-54" value="" style="rounded=1;whiteSpace=wrap;html=1;strokeColor=#999999;" vertex="1" parent="KU0HaTrigs29UVrVVI0A-53">
          <mxGeometry width="110" height="110" as="geometry" />
        </mxCell>
        <mxCell id="KU0HaTrigs29UVrVVI0A-55" value="" style="ellipse;whiteSpace=wrap;html=1;aspect=fixed;strokeColor=#717171;" vertex="1" parent="KU0HaTrigs29UVrVVI0A-53">
          <mxGeometry x="32.08333333333333" y="32.08333333333333" width="45.83333333333333" height="45.83333333333333" as="geometry" />
        </mxCell>
        <mxCell id="KU0HaTrigs29UVrVVI0A-56" value="" style="rounded=1;whiteSpace=wrap;html=1;strokeColor=none;fillColor=#00FF80;arcSize=50;" vertex="1" parent="KU0HaTrigs29UVrVVI0A-53">
          <mxGeometry x="53.166666666666664" y="96.25" width="3.6666666666666665" height="11" as="geometry" />
        </mxCell>
        <mxCell id="KU0HaTrigs29UVrVVI0A-57" value="" style="group" connectable="0" vertex="1" parent="1">
          <mxGeometry x="1329" y="229" width="120" height="60" as="geometry" />
        </mxCell>
        <mxCell id="KU0HaTrigs29UVrVVI0A-58" value="" style="rounded=1;whiteSpace=wrap;html=1;strokeColor=#717171;" vertex="1" parent="KU0HaTrigs29UVrVVI0A-57">
          <mxGeometry width="120" height="60" as="geometry" />
        </mxCell>
        <mxCell id="KU0HaTrigs29UVrVVI0A-59" value="" style="rounded=1;whiteSpace=wrap;html=1;strokeColor=#717171;fillColor=#717171;" vertex="1" parent="KU0HaTrigs29UVrVVI0A-57">
          <mxGeometry x="20" y="10" width="90" height="40" as="geometry" />
        </mxCell>
        <mxCell id="KU0HaTrigs29UVrVVI0A-60" value="" style="group" connectable="0" vertex="1" parent="1">
          <mxGeometry x="1339" y="389" width="120" height="60" as="geometry" />
        </mxCell>
        <mxCell id="KU0HaTrigs29UVrVVI0A-61" value="" style="rounded=1;whiteSpace=wrap;html=1;strokeColor=#717171;" vertex="1" parent="KU0HaTrigs29UVrVVI0A-60">
          <mxGeometry width="120" height="60" as="geometry" />
        </mxCell>
        <mxCell id="KU0HaTrigs29UVrVVI0A-62" value="" style="rounded=1;whiteSpace=wrap;html=1;strokeColor=#717171;fillColor=#717171;" vertex="1" parent="KU0HaTrigs29UVrVVI0A-60">
          <mxGeometry x="20" y="10" width="90" height="40" as="geometry" />
        </mxCell>
        <mxCell id="KU0HaTrigs29UVrVVI0A-63" value="" style="group" connectable="0" vertex="1" parent="1">
          <mxGeometry x="1209" y="365" width="110" height="110" as="geometry" />
        </mxCell>
        <mxCell id="KU0HaTrigs29UVrVVI0A-64" value="" style="rounded=1;whiteSpace=wrap;html=1;strokeColor=#999999;" vertex="1" parent="KU0HaTrigs29UVrVVI0A-63">
          <mxGeometry width="110" height="110" as="geometry" />
        </mxCell>
        <mxCell id="KU0HaTrigs29UVrVVI0A-65" value="" style="ellipse;whiteSpace=wrap;html=1;aspect=fixed;strokeColor=#717171;" vertex="1" parent="KU0HaTrigs29UVrVVI0A-63">
          <mxGeometry x="32.08333333333333" y="32.08333333333333" width="45.83333333333333" height="45.83333333333333" as="geometry" />
        </mxCell>
        <mxCell id="KU0HaTrigs29UVrVVI0A-66" value="" style="rounded=1;whiteSpace=wrap;html=1;strokeColor=none;fillColor=#00FF80;arcSize=50;" vertex="1" parent="KU0HaTrigs29UVrVVI0A-63">
          <mxGeometry x="53.166666666666664" y="96.25" width="3.6666666666666665" height="11" as="geometry" />
        </mxCell>
        <mxCell id="KU0HaTrigs29UVrVVI0A-67" value="" style="group" connectable="0" vertex="1" parent="1">
          <mxGeometry x="1209" y="205" width="110" height="110" as="geometry" />
        </mxCell>
        <mxCell id="KU0HaTrigs29UVrVVI0A-68" value="" style="rounded=1;whiteSpace=wrap;html=1;strokeColor=#999999;" vertex="1" parent="KU0HaTrigs29UVrVVI0A-67">
          <mxGeometry width="110" height="110" as="geometry" />
        </mxCell>
        <mxCell id="KU0HaTrigs29UVrVVI0A-69" value="" style="ellipse;whiteSpace=wrap;html=1;aspect=fixed;strokeColor=#717171;" vertex="1" parent="KU0HaTrigs29UVrVVI0A-67">
          <mxGeometry x="32.08333333333333" y="32.08333333333333" width="45.83333333333333" height="45.83333333333333" as="geometry" />
        </mxCell>
        <mxCell id="KU0HaTrigs29UVrVVI0A-70" value="" style="rounded=1;whiteSpace=wrap;html=1;strokeColor=none;fillColor=#00FF80;arcSize=50;" vertex="1" parent="KU0HaTrigs29UVrVVI0A-67">
          <mxGeometry x="53.166666666666664" y="96.25" width="3.6666666666666665" height="11" as="geometry" />
        </mxCell>
      </root>
    </mxGraphModel>
  </diagram>
</mxfile>
